<svg version="1.1" id="Layer_1" xmlns="http://www.w3.org/2000/svg" xmlns:xlink="http://www.w3.org/1999/xlink" x="0px" y="0px"
	 viewBox="-588.2 -323.2 1500 1500" style="enable-background:new -588.2 -323.2 1500 1500;" xml:space="preserve">
<style type="text/css">
	.st0{fill:none;stroke:#fff;stroke-width:15;stroke-miterlimit:10;}
	.st1{fill:#fff;stroke:#fff;stroke-width:2;stroke-miterlimit:10;}
</style>
  <g>
    <path class="st1" d="M379,194.7h-68.8v-25.2c0-4.1-3.4-7.5-7.5-7.5H21c-4.1,0-7.5,3.4-7.5,7.5v25.2h-68.8c-9.8,0-17.8,8-17.8,17.8v329.2
      c0,9.8,8,17.8,17.8,17.8h163.8V617H37.7c-4.1,0-7.5,3.4-7.5,7.5s3.4,7.5,7.5,7.5h215c4.1,0,7.5-3.4,7.5-7.5s-3.4-7.5-7.5-7.5h-37.5
      v-57.4H246c4.1,0,7.5-3.4,7.5-7.5s-3.4-7.5-7.5-7.5H-55.3c-1.5,0-2.8-1.3-2.8-2.8V212.6c0-1.5,1.3-2.8,2.8-2.8h68.8v273.9h-48.1
      c-4.1,0-7.5,3.4-7.5,7.5s3.4,7.5,7.5,7.5H246c4.1,0,7.5-3.4,7.5-7.5s-3.4-7.5-7.5-7.5h-58.9v-61.3c0-4.1-3.4-7.5-7.5-7.5H61
      c-4.1,0-7.5,3.4-7.5,7.5v61.3h-25V202.2c0,0,0-25.2,0-25.2h266.7v68.3c0,4.1,3.4,7.5,7.5,7.5s7.5-3.4,7.5-7.5v-35.6H379
      c1.5,0,2.8,1.3,2.8,2.8v329.2c0,1.5-1.3,2.8-2.8,2.8h-19.7c-4.1,0-7.5,3.4-7.5,7.5s3.4,7.5,7.5,7.5H379c9.8,0,17.8-8,17.8-17.8
      V212.6C396.8,202.7,388.8,194.7,379,194.7z M200.2,617h-76.7v-57.4h76.7V617z M68.5,429.8h103.7v53.8H68.5V429.8z"/>
    <path class="st1" d="M336.7,340.6c0-0.1,0-0.2,0-0.3c0-0.2-0.1-0.3-0.1-0.5c0-0.1,0-0.2-0.1-0.2c0-0.2-0.1-0.3-0.2-0.5c0-0.1,0-0.1-0.1-0.2
      l0-0.1c0,0,0,0,0,0l-26.6-66.2c-1.1-2.8-3.9-4.7-7-4.7s-5.8,1.9-7,4.7l-26.6,66.2c0,0-0.1,0.1-0.1,0.1c0,0.1,0,0.1-0.1,0.2
      c-0.1,0.1-0.1,0.3-0.2,0.5c0,0.1,0,0.2-0.1,0.2c0,0.2-0.1,0.3-0.1,0.5c0,0.1,0,0.2,0,0.3c0,0.1,0,0.3-0.1,0.4c0,0.2,0,0.5,0,0.7
      v256.2c0,18.8,15.3,34.1,34.1,34.1c18.8,0,34.1-15.3,34.1-34.1V341.7c0-0.2,0-0.5,0-0.7C336.8,340.8,336.7,340.7,336.7,340.6
      L336.7,340.6z M283.5,349.2h38.3v214.2h-38.3V349.2z M302.7,295.5l15.5,38.7h-31.1L302.7,295.5z M302.7,617
      c-10.6,0-19.1-8.6-19.1-19.1v-19.5h38.3v19.5C321.8,608.4,313.2,617,302.7,617z"/>
    <path  class="st1" d="M61,269.8h201.7c4.1,0,7.5-3.4,7.5-7.5v-52.8c0-4.1-3.4-7.5-7.5-7.5H61c-4.1,0-7.5,3.4-7.5,7.5v52.8
      C53.5,266.4,56.8,269.8,61,269.8L61,269.8z M68.5,217h186.7v37.8H68.5L68.5,217L68.5,217z"/>
    <path class="st1" d="M262.7,284.8H61c-4.1,0-7.5,3.4-7.5,7.5c0,4.1,3.4,7.5,7.5,7.5h201.7c4.1,0,7.5-3.4,7.5-7.5S266.8,284.8,262.7,284.8z"/>
    <path class="st1" d="M179.7,324.8H61c-4.1,0-7.5,3.4-7.5,7.5s3.4,7.5,7.5,7.5h118.7c4.1,0,7.5-3.4,7.5-7.5S183.8,324.8,179.7,324.8z"/>
    <path class="st1" d="M247.5,324.8h-37.8c-4.1,0-7.5,3.4-7.5,7.5s3.4,7.5,7.5,7.5h37.8c4.1,0,7.5-3.4,7.5-7.5S251.6,324.8,247.5,324.8z"/>
    <path class="st1" d="M179.7,354.8H61c-4.1,0-7.5,3.4-7.5,7.5s3.4,7.5,7.5,7.5h118.7c4.1,0,7.5-3.4,7.5-7.5S183.8,354.8,179.7,354.8z"/>
    <path class="st1" d="M246,354.8h-36.4c-4.1,0-7.5,3.4-7.5,7.5s3.4,7.5,7.5,7.5H246c4.1,0,7.5-3.4,7.5-7.5S250.2,354.8,246,354.8z"/>
    <path class="st1" d="M179.7,384.8H61c-4.1,0-7.5,3.4-7.5,7.5s3.4,7.5,7.5,7.5h118.7c4.1,0,7.5-3.4,7.5-7.5S183.8,384.8,179.7,384.8z"/>
    <path class="st1" d="M246,384.8h-36.4c-4.1,0-7.5,3.4-7.5,7.5s3.4,7.5,7.5,7.5H246c4.1,0,7.5-3.4,7.5-7.5S250.2,384.8,246,384.8z"/>
  </g>
  <rect x="-338.2" y="-74.2" transform="matrix(0.7071 0.7071 -0.7071 0.7071 348.4622 10.2817)" class="st0" width="1000" height="1000"/>
</svg>
