<svg version="1.1" id="Layer_1" xmlns="http://www.w3.org/2000/svg" xmlns:xlink="http://www.w3.org/1999/xlink" x="0px" y="0px"
	 viewBox="0 0 511.998 511.998" style="enable-background:new 0 0 511.998 511.998;" xml:space="preserve">

  <defs>
   <style type="text/css">
    .st0{fill:#343D59;stroke:#343D59;stroke-width:5;stroke-miterlimit:10;}
   </style>
 </defs>

  <g class="st0">
    <path d="M143.506,456.7c-0.039-1.184-0.191-2.473-0.649-3.569c-0.203-0.484-0.337-0.721-0.422-0.805
      c-0.023-0.256-0.048-0.496-0.088-0.613c-0.664-1.913-3.068-3.359-4.987-2.029c0.927-0.642-0.949,0.431-0.859,0.38
      c-0.403,0.229-0.821,0.519-1.154,0.838c-1.242,1.193-1.879,2.7-1.921,4.415c-0.005,0.152-0.006,0.718,0.018,0.831
      c-0.028,0.136-0.058,0.272-0.083,0.406c-0.195,1.06-0.4,2.107-0.353,3.189c0.094,2.181,1.469,4.169,3.626,4.761
      c2.256,0.62,4.272-0.482,5.576-2.27C143.344,460.683,143.569,458.584,143.506,456.7z"/>
    <path d="M123.215,482.315c-1.073,2.283-1.68,4.524-2.062,7.012c-0.384,2.499-0.966,4.915-0.457,7.43
      c0.573,2.83,4.524,3.709,6.421,1.695c3.256-3.453,2.058-8.715,3.797-12.892C132.734,481.187,125.24,478.005,123.215,482.315z"/>
  </g>
  <g class="st0">
    <path d="M404.688,414.5c-1.087-8.234-1.917-16.639-3.331-24.815c-0.677-3.912-1.903-7.634-2.778-11.477
      c-0.476-2.091-0.453-4.223-1.173-6.277c-0.279-0.797-0.627-1.572-1.05-2.272c6.052-2.141,7.424-8.223,6.742-14.92
      c-1.081-10.654-1.875-21.509-2.444-32.196c-0.356-6.675-1.183-17.681-8.636-20.537c-0.948-0.363-1.876-0.523-2.796-0.563
      c-0.046-0.323-0.091-0.647-0.139-0.97c-0.931-6.414-1.97-12.799-2.493-19.288c-0.53-6.571-3.005-12.613-3.862-19.197
      c-0.387-2.977-0.737-5.986-1.402-8.916c-0.713-3.146-0.898-6.199-1.497-9.282c-0.161-0.824-0.426-1.525-0.765-2.138
      c0.101-2.021-0.28-4.158-0.749-6.364c-1.215-5.7-2.152-9.874-5.781-14.627c-2.741-3.589-4.831-8.942-8.777-11.303
      c-4.594-2.747-10.873-4.442-16.193-4.501c-9.417-0.104-19.806,4.428-25.177,12.342c-3.248,4.785-4.368,10.811-4.609,16.504
      c-0.152,3.576-0.279,8.621,1.697,11.989c-0.351,0.163-0.707,0.316-1.05,0.492c-1.474,0.758-2.344,2.881-1.815,4.462
      c1.677,5.011,3.203,10.739,4.156,15.938c1.065,5.814,1.281,11.455,3.201,17.089c3.407,9.991,2.754,20.471,4.336,30.787
      c-3.879,0.765-7.701,1.557-11.649,2.139c-0.071,0.01-0.136,0.028-0.206,0.039c-0.077-1.718,0.143-4.091,0.061-4.817
      c-0.369-3.294-1.094-6.4-1.044-9.741c0.084-5.59-0.855-11.338-1.67-16.856c-1.185-8.021-3.351-15.823-4.206-23.902
      c-0.704-6.652-1.464-13.3-2.365-19.929c-1.859-13.686-2.241-27.612-6.169-40.94c-1.936-6.57-3.867-13.084-5.239-19.802
      c-1.023-5.014-1.575-9.941-3.304-14.673c2.473-2.462,3.282-6.082,4.765-9.461c2.666-6.077,4.409-15.219,3.882-21.885
      c-0.322-4.061-1.936-7.978-2.812-11.947c-1.012-4.585-1.134-9.297-2.166-13.854c-0.978-4.308-2.591-8.491-3.444-12.842
      c-0.766-3.909-0.635-7.936-1.356-11.886c-1.116-6.107-0.361-14.802-8.027-16.529c-4.755-1.071-10.623,0.401-15.949,2.264
      c-2.303-0.163-4.605-0.308-6.909-0.431c0.333-1.614,0.744-3.705,0.839-4.506c0.632-5.336-0.184-10.951-0.44-16.301
      c-0.292-6.145,0.197-11.972,0.558-18.088c0.302-5.126,1.156-10.278,1.328-15.384c0.242-7.203-3.043-11.521-10.261-11.726
      c-5.661-0.161-10.94,0.051-16.55-1.079c-4.201-0.848-7.443-2.834-11.766-2.203c-1.039,0.152-2.244,1.358-2.397,2.397
      c-1.881,12.759-3.978,25.201-4.708,38.192c-0.376,6.685-0.108,12.901,0.256,19.545c0.16,2.902-0.292,6.002-0.221,8.945
      c-4.878,0.443-9.743,0.903-14.752,0.882c-5.848-0.026-11.905,0.219-16.529,4.298c-4.519,3.985-6.958,10.56-8.764,16.172
      c-2.641,8.205-1.508,16.382-3.218,24.638c-1.622,7.837-3.828,15.589-5.758,23.355c-1.567,6.305-3.894,14.895-1.73,21.255
      c0.937,2.752,2.716,4.434,4.894,5.602c-2.336,7.894-6.524,15.553-8.225,23.546c-2.36,11.09-4.792,22.142-7.009,33.246
      c-4.179,20.924-9.333,41.675-15.268,62.106c-1.358,4.68-3.407,8.875-4.45,13.699c-1.192,5.506-2.713,10.912-4.284,16.319
      c-3.102,10.68-4.545,21.987-7.036,32.849c-2.439,10.63-7.007,20.626-9.468,31.255c-2.538,10.957-5.056,21.86-7.756,32.774
      c-1.215,4.911-1.114,9.93-1.909,14.911c-0.567,3.536-0.481,7.291,1.802,10.229c2.119,2.728,5.051,4.4,8.281,5.542
      c-2.467,3.604-3.108,7.577-4.205,12.077c-1.334,5.462-3.016,10.089-1.726,15.766c0.309,1.365,1.674,2.877,3.103,3.103
      c2.778,0.44,5.569,0.811,8.36,1.184c-0.022,0.029-0.05,0.052-0.068,0.083c-2.293,3.837-3.453,8.263-4.523,12.565
      c-1.092,4.385-3.014,8.869-3.787,13.302c-1.171,6.711,3.192,12.106,10.013,12.038c9.752-0.097,9.014-8.117,11.532-15.799
      c1.516-4.624,3.605-9.681,4.242-14.496c0.202-1.534,0.038-2.983,0.306-4.452c3.002,0.743,6.049,1.12,8.739-0.665
      c3.388-2.25,4.096-6.476,4.709-10.178c0.943-5.692,1.957-11.053,1.895-16.769c0.947,0.13,1.899,0.272,2.855,0.448
      c8.392,1.558,12.194-2.049,13.888-9.925c2.283-10.61,5.243-20.993,7.238-31.686c0.988-5.295,1.954-10.597,3.176-15.845
      c1.348-5.797,3.588-11.369,4.861-17.162c4.61-20.972,10.502-41.658,14.878-62.726c2.651-12.77,4.883-25.38,8.351-37.95
      c1.553-5.629,2.278-11.486,3.202-17.242c0.889-5.541,3.363-10.448,4.257-15.933c0.067-0.409,0.129-0.82,0.196-1.229
      c11.75,1.341,25.178,5.025,36.412,1.367c0.267,2.641,0.507,5.285,0.697,7.93c0.998,13.864,2.311,27.354,4.659,41.019
      c2.215,12.906,3.134,26.302,4.356,39.272c1.365,14.493-0.537,29.276,1.837,43.608c0.597,3.608-0.1,7.209,0.271,10.842
      c0.312,3.08,0.933,6.149,1.36,9.216c0.995,7.14,3.387,14.034,4.627,21.144c0.964,5.518,2.149,11.047,2.867,16.599
      c0.554,4.286,1.037,9.239,4.179,12.531c3.217,3.368,8.225,3.263,12.529,2.618c7.309-1.094,13.612-4.536,21.118-4.613
      c5.564-0.056,12.127,0.431,15.961-4.411c2.894-3.655,2.964-8.513,2.442-12.942c-0.792-6.723-2.745-13.224-2.576-20.05
      c0.146-5.893-0.725-11.092-2.645-16.309c-0.046-0.905-0.135-1.814-0.273-2.73c-0.278-1.852-1.541-4.917-0.363-6.613
      c1.283-1.85,4.586-1.662,6.701-1.932c0.476-0.061,0.95-0.133,1.427-0.196c-0.229,1.773,0.218,6.271,0.219,6.347
      c0.071,2.938-0.536,5.568,0.071,8.527c0.842,4.115,2.528,8.041,3.433,12.15c0.852,3.862,0.597,7.707,1.144,11.593
      c0.97,6.888,1.372,13.851,2.365,20.69c0.659,4.535,1.488,11.471,5.103,14.635c1.54,1.349,4.219,1.664,5.816,0.274
      c0.913,1.538,1.969,3.034,2.846,4.536c3.203,5.485,6.638,11.338,11.049,15.928c4.699,4.889,8.072,10.725,10.989,16.814
      c0.006,0.012,0.012,0.027,0.018,0.04c0.28,1.555,0.809,3.044,1.839,4.224c1.514,3.661,3.067,7.489,5.408,10.385
      c1.62,2.003,5.043,1.224,6.203-0.799c2.817-4.916,3.344-10.272,4.281-15.758c1.146-6.712,3.598-13.105,5.105-19.733
      c1.328-5.842,0.491-11.456,0.534-17.365c0.015-2.079,0.462-4.359,0.748-6.616c2.776,0.832,6.292-0.604,6.214-4.348
      C406.25,430.441,405.711,422.249,404.688,414.5z M370.328,246.665c0.33,1.092,1.1,1.83,2.014,2.199
      c0.344,2.107,1.159,4.153,1.616,6.237c1.149,5.244,1.037,10.679,2.047,15.935c0.603,3.14,1.937,5.87,2.15,9.106
      c0.166,2.498,0.183,4.944,0.428,7.447c0.501,5.142,0.735,10.322,1.176,15.477c-5.241,0.914-10.589,1.256-15.834,2.25
      c-3.284,0.623-6.35,1.707-9.447,2.794c1.387-10.095-0.965-20.917-2.409-30.919c-0.927-6.426-0.794-12.787-1.43-19.205
      c-0.223-2.233-1.217-4.559-1.16-6.794c0.028-1.09,0.205-1.93,0.375-2.691c1.948-0.072,3.85-0.152,5.672-0.279
      c2.504-0.175,4.988-0.513,7.459-0.952c1.688-0.299,5.033-1.727,7.084-1.7C370.128,245.909,370.206,246.262,370.328,246.665z
       M328.737,225.251c2.571-6.984,10.494-11.477,17.792-11.739c3.722-0.133,9.623,0.913,12.637,3.27
      c2.233,1.748,3.539,5.394,5.299,7.65c2.801,3.595,4.107,6.105,4.955,10.638c0.21,1.121,0.451,2.166,0.615,3.208
      c-5.322,0.308-11.398,2.269-14.511,2.448c-8.893,0.509-19.207,0.184-28.391,2.345c0.068-1.209-0.016-2.503-0.06-3.916
      C326.925,234.415,327.077,229.764,328.737,225.251z M325.212,251.779c5.932-2.266,12.872-2.81,19.598-3.09
      c-0.498,2.299-0.464,4.468,0.073,7.47c1.103,6.156,0.754,12.624,1.611,18.86c1.567,11.422,3.421,22.747,5.021,34.111
      c-0.556,0.184-1.115,0.366-1.678,0.537c-5.221,1.601-10.588,2.716-15.956,3.722c1.578-9.89,1.752-20.266-1.445-29.836
      C328.989,273.237,328.182,262.264,325.212,251.779z M225.783,22.756c0.486-3.327,0.792-6.708,1.527-9.993
      c0.453-2.03,0.602-3.837,0.787-5.7c1.455,0.482,3.053,1.327,4.181,1.619c2.177,0.564,4.521,0.936,6.744,1.268
      c4.476,0.671,9.083-0.147,13.494,0.473c5.903,0.83,2.525,8.432,1.965,12.572c-0.682,5.043-1.198,10.16-1.77,15.226
      c-1.059,9.367,0.669,19.057-1.507,28.244c-0.191,0.807-0.342,1.675-0.448,2.561c-7.72-0.274-15.614-0.822-23.298-0.554
      c0.011-0.093,0.021-0.179,0.028-0.247c0.357-2.972,0.785-5.925,0.452-8.915c-0.696-6.262-1.981-12.25-2.358-18.602
      C225.221,34.63,224.899,28.799,225.783,22.756z M178.735,141.473c1.551-6.864,3.182-13.72,4.637-20.606
      c2.572-12.181-0.446-26.882,7.944-37.382c4.026-5.037,12.318-2.995,17.988-3.073c7.364-0.101,14.471-2.009,21.831-1.925
      c7.465,0.085,14.864,0.093,22.256-0.049c1.092,0.764,2.559,1.166,4.496,1.027c1.243-0.089,2.211-0.558,2.907-1.231
      c1.496-0.054,2.99-0.093,4.489-0.162c4.179,0.199,8.331,0.04,12.581-0.146c0.592-0.026,1.203-0.027,1.808-0.041
      c0,0.002,0,0.005,0,0.009c-0.418,2.834,1.472,7.117,2.04,9.848c1.232,5.929,1.762,11.547,3.493,17.437
      c1.84,6.259,2.57,12.482,3.979,18.834c1.536,6.926,3.266,12.069,2.111,19.209c-0.485,3.013-0.81,6.422-1.986,9.265
      c-0.553,1.339-2.157,5.943-3.001,6.87c-1.856,2.038-10.385,2.432-12.92,2.472c-6.445,0.102-12.724,1.097-19.214,1.065
      c-1.014-0.005-2.027-0.013-3.041-0.021c-0.14-3.833-5.637-3.778-5.981-0.04c-3.719-0.027-7.437-0.05-11.156-0.051
      c-2.702-0.001-5.594,0.356-8.28,0.05c-2.905-0.331-5.535-1.456-8.509-1.569c-6.627-0.252-13.165-0.881-19.813-1.224
      c-3.386-0.175-6.732-0.363-10.059-1.07c-1.556-0.331-5.171-0.852-7.701-1.658c-0.351-1.663-1.641-2.517-3.014-2.607
      C175.951,151.268,178.143,144.09,178.735,141.473z M250.01,213.07c-0.909,0.005-1.839-0.032-2.808-0.158
      c-3.213-0.419-6.418-0.151-9.643-0.094c-3.301,0.057-6.383,0.758-9.573,0.936c-2.371,0.133-4.128-0.569-6.238-0.447
      c0.464-2.948,0.924-5.898,1.396-8.845c1.697-10.584,3.827-20.756,4.713-31.366c5.592,0.309,11.445-0.082,17.082-0.291
      c0.275,9.96,1.867,19.716,3.427,29.738C248.912,206.048,249.466,209.557,250.01,213.07z M131.947,485.52
      c-1.85,6.396-3.861,12.728-5.623,19.144c-2.572,0.392-4.699,1.395-5.63-2.142c-1.021-3.884,1.204-7.935,2.099-11.838
      c1.199-5.226,3.355-11.175,1.188-16.34c3.234,0.439,6.463,0.908,9.669,1.508C132.878,478.927,132.874,482.302,131.947,485.52z
       M145.135,461.904c-0.56,2.624-0.252,6.928-3.096,7.387c-1.268,0.205-3.254-0.971-4.568-1.277
      c-2.479-0.578-5.039-0.779-7.547-1.204c-3.82-0.648-7.653-1.262-11.463-1.977c0.224-3.755,2.008-7.862,2.708-11.293
      c0.673-3.303,1.567-6.51,2.099-9.821c2.35,0.436,4.668,0.794,6.784,1.242c4.973,1.048,9.47,0.897,14.315,2.666
      c0.81,0.295,1.624,0.525,2.439,0.73C146.478,452.96,146.111,457.342,145.135,461.904z M209.765,228.766
      c-0.755,5.271-0.623,10.702-2.446,15.749c-1.663,4.604-2.632,8.825-3.424,13.68c-1.642,10.085-4.971,19.578-6.859,29.573
      c-3.818,20.221-8.219,40.172-12.722,60.246c-4.456,19.865-11.134,39.054-15.126,59.083c-2.009,10.081-4.982,19.852-7.232,29.856
      c-0.116,0.513-0.741,4.158-0.3,3.846c-0.744,0.525-3.799-0.671-4.668-0.838c-4.528-0.864-8.364-1.383-12.794-2.907
      c-8.4-2.891-18.631-0.378-26.507-5.367c-3.989-2.528-1.335-6.042-1.058-10.21c0.381-5.701,1.326-10.329,2.833-15.866
      c2.69-9.875,4.007-20.078,6.805-29.922c2.789-9.819,6.574-19.17,8.543-29.225c1.998-10.214,3.341-20.758,6.044-30.79
      c1.285-4.766,2.499-9.547,3.477-14.389c0.987-4.884,2.706-9.18,4.152-13.916c3.068-10.033,5.023-20.296,7.487-30.502
      c2.701-11.19,4.92-22.658,7.014-33.956c2.114-11.397,4.855-22.92,8.157-34.05c2.111-7.119,5.623-13.849,7.439-20.974
      c7.86,1.996,15.381,2.336,23.454,2.825c5.762,0.351,11.404,0.813,17.055,1.455C217.698,191.255,212.484,209.811,209.765,228.766z
       M252.629,233.712c-4.224,0.457-8.515,0.224-12.767,0.362c-7.416,0.24-14.5,1.569-21.793,2.375
      c0.911-5.661,1.815-11.325,2.707-16.998c2.185,0.602,4.365,1.617,6.587,1.683c3.308,0.099,6.796-0.936,10.195-0.953
      c3.867-0.019,7.424-0.077,11.221,0.685c0.902,0.18,1.698,0.233,2.445,0.216c0.62,4.196,1.195,8.396,1.717,12.598
      C252.836,233.691,252.736,233.699,252.629,233.712z M272.062,321.342c-1.968-11.648-1.831-24.074-4.686-35.596
      c-1.514-6.116-2.27-12.239-2.494-18.542c-0.234-6.59-1.178-13.073-1.466-19.643c-0.414-9.461-1.903-18.908-3.567-28.307
      c1.888-1.731,1.538-5.222-1.107-6.187c-0.487-2.691-0.975-5.379-1.438-8.06c-1.255-7.26-1.828-14.943-3.728-21.998
      c-0.937-3.477-1.5-6.903-1.858-10.362c6.962-0.164,13.69-0.893,20.638-1.374c5.182-0.359,10.434-0.787,15.35-2.583
      c0.93,5.212,0.839,10.694,1.842,15.905c1.368,7.118,3.595,13.975,5.262,21.013c3.346,14.123,4.489,29.342,5.76,43.792
      c1.265,14.35,4.189,28.426,5.696,42.682c0.325,3.076,1.293,5.675,1.317,8.842c0.026,3.401,0.182,6.503,0.714,9.868
      c0.458,2.906,0.155,5.65,0.536,8.253c-2.27,1.009-4.492,2.154-6.83,3.178c-5.445,2.381-12.362,3.53-18.279,4.073
      c-2.319,0.212-4.637,0.308-6.947,0.614c-1.356,0.18-2.663,0.134-3.96,0.127C272.616,325.126,272.379,323.223,272.062,321.342z
       M321.756,429.789c-1.193,5.157-11.705,2.641-16.075,3.307c-5.133,0.781-9.798,3.301-14.903,4.239
      c-2.844,0.523-4.993,1.036-6.252-1.667c-0.914-1.962-0.854-4.74-1.144-6.864c-1.566-11.492-4.601-22.627-6.902-33.956
      c-0.395-1.948-0.679-3.874-0.898-5.797c2.604,0.692,5.559-0.39,8.044-1.279c4.729-1.692,9.42-2.204,14.313-3.246
      c5.852-1.245,11.677-2.733,17.579-3.69c0.076,1.271,0.264,2.535,0.534,3.734c0.468,2.088,0.74,4.826,1.546,6.777
      c0.178,0.435,0.4,0.822,0.635,1.192c0.312,2.27,0.8,4.566,0.981,7.108c0.462,6.509,0.246,12.717,1.357,19.227
      C321.138,422.207,322.537,426.408,321.756,429.789z M325.931,368.29c-3.471,0.663-6.829,2.034-8.808,5.138
      c-0.161,0.253-0.284,0.521-0.419,0.785c-3.208-0.474-7.629-0.684-8.209-0.592c-4.638,0.737-9.205,2.087-13.838,2.885
      c-6.918,1.192-13.004,2.622-19.649,4.844c-0.077-1.774-0.128-3.558-0.178-5.365c-0.06-2.231-0.666-4.212-1.056-6.375
      c-0.615-3.41-0.397-6.823-0.376-10.279c0.055-9.011,0.407-18.316-0.172-27.442c1.306,0.52,2.674,0.915,4.369,1.062
      c4.507,0.391,8.699,0.535,13.148-0.281c4.613-0.847,9.375-1.382,13.769-3.103c2.93-1.149,5.592-2.814,8.389-4.145
      c1.435,0.375,2.941-0.319,3.926-1.505c0.832-0.232,1.679-0.428,2.567-0.528c8.961-1.009,18.149-2.814,27.003-4.763
      c5.036-1.109,9.75-2.874,14.66-4.374c5.282-1.612,10.878-2.087,16.331-2.679c0.859-0.094,2.009-0.379,3.275-0.699
      c0.061,0.394,0.138,0.785,0.202,1.177c0.328-0.229,0.716-0.378,1.146-0.412c1.878-1.005,3.939-1.689,5.692-2.078
      c0.919-0.203,1.821,0.138,2.328,0.947c0.044,0.071,0.074,0.146,0.117,0.217c-0.001-0.072,0.003-0.144,0-0.216
      c0.035,0.028,0.077,0.049,0.111,0.079c3.85,3.517,2.487,11.872,2.803,16.453c0.676,9.779,0.848,19.544,0.708,29.353
      c-0.068,4.658-1.914,4.121-6.06,3.918c-4.45-0.216-8.374,0.495-12.77,1.076c-4.903,0.648-9.819-0.679-14.656,0.724
      c-5.668,1.642-10.971,2.788-16.855,3.677C337.623,366.668,331.693,367.188,325.931,368.29z M349.072,434.406
      c-0.125-1.502-0.19-2.934-0.229-4.169c-0.222-6.891-2.092-13.562-2.512-20.425c-0.423-6.889-3.143-12.808-4.703-19.418
      c-1.199-5.084-1.01-9.752-3.104-14.413c3.199-0.457,6.398-0.924,9.598-1.38c2.624-0.374,5.284-0.628,7.89-1.114
      c0.688-0.128,1.365-0.31,2.036-0.508c0.765,3.036,1.617,6.011,2.515,9.063c2.032,6.907,0.604,13.986,1.781,20.991
      c0.866,5.157,1.265,10.059,2.839,15.07c1.187,3.781,2.038,8.329,2.581,12.549c-0.291-0.229-0.593-0.441-0.913-0.623
      c-2.881-1.631-6.264-1.419-9.351-0.574C354.285,430.337,351.367,431.999,349.072,434.406z M391.463,464.533
      c-0.472,2.255-1.087,4.474-1.739,6.684c-4.331-3.249-9.24-1.218-13.607,1.259c-0.904-1.266-1.857-2.475-2.872-3.584
      c-4.32-4.721-8.106-9.318-11.768-14.606c-2.604-3.759-4.937-6.719-7.894-9.796c1.026-4.665,2.189-9.422,8.25-8.947
      c4.727,0.37,6.259,6.657,10.822,8.142c1.246,0.406,2.768-0.041,3.667-0.969c3.314-3.424,4.49-6.825,9.781-7.522
      c2.527-0.333,5.179-0.296,7.198,0.992c-1.266,3-1.253,6.777-1.483,9.881C391.361,452.253,392.743,458.407,391.463,464.533z
       M390.788,427.163c-3.528-0.411-7.409,0.166-10.733,1.405c-1.624,0.606-3.198,1.451-4.479,2.638
      c-0.653,0.606-2.278,3.666-2.909,3.878c-0.459,0.155-0.713,0.1-0.958-0.121c0.744-5.207-0.023-10.212-0.822-15.343
      c-1.067-6.848-2.942-13.648-3.353-20.637c-0.218-3.712,0.156-7.438-0.121-11.152c-0.308-4.138-1.741-7.578-2.902-11.514
      c-0.484-1.646-0.741-3.372-1.237-4.923c0.787-0.178,1.585-0.305,2.404-0.334c2.88-0.108,5.707,0.508,8.604,0.302
      c2.611-0.186,5.159-0.945,7.764-1.161c2.944-0.245,5.868,0.249,8.808,0.268c0.417,2.884-0.712,6.849-0.468,9.313
      c0.673,6.775,2.661,13.238,3.072,20.1c0.581,9.676,2.13,19.248,2.939,28.911C394.77,427.939,392.837,427.401,390.788,427.163z"/>
  </g>
  <g class="st0">
    <path d="M254.313,114.843c-0.486-5.646-3.039-10.254-8.039-13.09c-4.791-2.717-10.957-3.871-15.287,0.14
      c-0.651,0.603-0.692,1.679-0.196,2.386c-6.73,3.065-10.558,12.081-11.615,19.534c-1.806,12.739,12.828,18.6,23.164,16.092
      C253.455,137.21,255.146,124.48,254.313,114.843z M243.229,130.604c-6.556,3.74-17.147,1.494-16.867-7.424
      c0.203-6.457,3.268-12.933,8.665-16.228c4.409,1.748,9.634,2.252,11.333,7.258C247.909,118.773,247.836,127.976,243.229,130.604z"
      />
  </g>
  <g class="st0">
    <path d="M184.928,215.358c-1.817,0.359-3.074,1.742-4.675,2.581c-1.468,0.77-2.847,1.418-4.076,2.581
      c-2.126,2.013-4.582,4.902-5.575,7.628c-0.294,0.807,0.185,1.954,0.952,2.338c3.628,1.819,6.115-1.584,8.118-4.14
      c1.135-1.447,2.136-2.149,3.645-3.163c1.518-1.017,2.668-2.551,3.91-3.874C188.736,217.702,187.269,214.511,184.928,215.358z"/>
  </g>
  <g class="st0">
    <path d="M183.437,231.27c-2.935,1.803-6.349,2.634-9.258,4.518c-1.426,0.924-2.918,2.023-3.744,3.543
      c-0.849,1.564-1.088,4.144,0.454,5.355c1.885,1.479,3.251,0.071,4.281-1.416c-0.463,0.668,0.665-0.722,0.894-0.961
      c0.531-0.554,1.084-0.997,1.723-1.419c2.898-1.918,6.136-3.28,8.88-5.432C189.066,233.575,185.976,229.71,183.437,231.27z"/>
  </g>
  <g class="st0">
    <path d="M180.224,245.226c-0.537,1.093-2.771,1.841-3.792,2.203c-1.769,0.626-3.52,0.983-5.173,1.947
      c-1.83,1.066-2.766,2.228-3.664,4.054c-0.007,0.002-0.054,0.078-0.172,0.296c-0.217,0.395-0.458,0.749-0.543,1.209
      c-0.16,0.848,0.039,1.556,0.649,2.181c1.332,1.359,3.493,0.92,4.771-0.306c0.565-0.541,0.874-1.304,1.424-1.859
      c0.772-0.779,1.821-1.274,2.666-1.975c1.259-1.042,2.685-1.903,3.906-2.992c1.311-1.168,1.583-2.353,1.841-3.948
      C182.313,244.961,180.793,244.073,180.224,245.226z"/>
  </g>
  <g class="st0">
    <path d="M174.024,260.624c-0.067-0.157-0.107-0.255-0.136-0.327c-0.21-1.175-1.424-1.562-2.243-0.758
      c-0.587,0.28-0.958,0.637-1.723,0.76c-1.418,0.227-2.377,0.453-3.511,1.416c-1.242,1.054-4.065,4.089-2.788,5.799
      c0.681,0.91,1.529,1.295,2.656,1.081c2.556-0.485,3.123-2.785,4.94-4.228c0.664-0.526,1.455-0.821,2.047-1.472
      c0.333-0.367,0.653-0.86,0.758-1.351C174.106,261.238,174.106,260.931,174.024,260.624z"/>
  </g>
  <g class="st0">
    <path d="M156.761,333.179c-3.132,0.191-5.976,2.464-8.213,4.481c-2.299,2.074-5.774,5.916-2.97,8.944
      c0.553,0.598,1.714,0.798,2.408,0.311c0.193-0.135,0.375-0.285,0.564-0.428c0.057-0.043,0.1-0.077,0.145-0.111
      c0.05-0.022,0.115-0.05,0.211-0.099c0.612-0.307,0.954-1.031,1.334-1.556c0.658-0.914,1.36-1.781,2.143-2.596
      c0.787-0.819,1.624-1.611,2.54-2.284c0.453-0.335,0.932-0.641,1.424-0.917c0.393-0.221,0.855-0.323,0.417-0.273
      C160.176,338.262,160.339,332.961,156.761,333.179z"/>
  </g>
  <g class="st0">
    <path d="M150.238,350.104c-1.497,1.926-3.581,3.308-5.282,5.05c-1.642,1.683-2.796,3.57-3.457,5.834
      c-0.316,1.079,0.598,2.602,1.858,2.439c2.8-0.362,4.146-2.171,5.637-4.373c1.469-2.17,3.461-3.904,4.904-6.124
      C155.317,350.751,151.879,347.994,150.238,350.104z"/>
  </g>
  <g class="st0">
    <path d="M294.888,338.804c-1.393,1.412-3.358,2.009-4.798,3.396c-1.405,1.351-2.576,3.074-3.722,4.641
      c-2.528,3.457-3.725,7.779-0.766,11.314c0.783,0.935,2.696,0.976,3.466,0c1.62-2.052,1.295-5.122,2.755-7.534
      c0.93-1.534,1.908-3.436,3.231-4.658c1.253-1.159,2.698-1.828,3.806-3.187C301.096,340.031,297.481,336.173,294.888,338.804z"/>
  </g>
  <g class="st0">
    <path d="M296.928,354.015c-0.894,1.853-2.733,3.111-3.397,5.103c-0.616,1.847-1.446,4.653-0.975,6.556
      c0.24,0.972,1.422,1.707,2.4,1.363c2.327-0.818,2.947-3.23,4.09-5.213c1.054-1.829,2.206-3.687,2.925-5.682
      C303.027,353.223,298.289,351.196,296.928,354.015z"/>
  </g>
  </svg>
