<svg version="1.1" id="Layer_1" xmlns="http://www.w3.org/2000/svg" xmlns:xlink="http://www.w3.org/1999/xlink" x="0px" y="0px"
	 viewBox="-543 -353 1500 1500" style="enable-background:new -543 -353 1500 1500;" xml:space="preserve">
<style type="text/css">
	.st0{fill:none;stroke:#fff;stroke-width:15;stroke-miterlimit:10;}
	.st1{fill:#fff;stroke:#fff;stroke-width:1;stroke-miterlimit:10;}
</style>
<g transform="translate(1)">
  <g>
    <path class="st1" d="M19.1,145.3c-18.8,0-35.8,6.8-48.6,19.6C-43.2,178.5-50,195.6-50,213.5c0,18.8,7.7,35.8,20.5,48.6s30.7,20.5,47.8,19.6
      c0,0,0.9,0,1.7,0c17.1,0,33.3-6.8,46.1-19.6c12.8-12.8,20.5-29.9,20.5-48.6c0.9-17.9-6.8-35-19.6-47.8
      C54.1,152.1,37,145.3,19.1,145.3z M54.1,250.2c-9.4,9.4-22.2,15.4-35.8,14.5c-12.8,0-26.5-5.1-35.8-14.5
      c-10.2-9.4-15.4-23-15.4-36.7s5.1-26.5,15.4-36.7c9.4-9.4,22.2-14.5,36.7-14.5c12.8,0,25.6,5.1,35,14.5
      c10.2,10.2,15.4,23,15.4,36.7S64.3,240.8,54.1,250.2z"/>
    <path class="st1" d="M52.4,298.9h-69.1c-13.7,0-24.7,11.1-24.7,25.6v298.7c0,13.7,11.9,25.6,25.6,25.6h68.3c13.7,0,25.6-11.9,25.6-24.7V324.5
      C78,310.8,66.1,298.9,52.4,298.9z M60.9,624c0,4.3-4.3,7.7-8.5,7.7h-68.3c-4.3,0-8.5-4.3-8.5-8.5V324.5c0-4.3,3.4-8.5,7.7-8.5
      h69.1c4.3,0,8.5,4.3,8.5,8.5V624z"/>
    <path class="st1" d="M342.5,290.3h-17.9c-33.3,0-64.9,14.5-85.3,37.5v-11.9c0-8.5-8.5-17.1-17.1-17.1h-85.3c-7.7,0-17.1,6.8-17.1,16.2v318.3
      c0,9.4,9.4,15.4,17.1,15.4h93.9c7.7,0,17.1-6,17.1-15.4V449.1c0-28.2,20.5-50.3,46.9-50.3c13.7,0,26.5,5.1,35.8,14.5
      c8.5,7.7,11.9,19.6,11.9,35v183.5c0,8.5,8.5,17.1,17.1,17.1h85.3c8.5,0,17.1-8.5,17.1-17.1V411.5
      C462,343.2,409.9,290.3,342.5,290.3z M444.9,630.8l-0.9,0.9h-83.6l-0.9-183.5c0-20.5-5.1-35.8-16.2-46.9
      c-12.8-12.8-29.9-19.6-47.8-19.6c-35.8,0.9-64,29.9-64,67.4v182.6h-93.9V315.9h84.5l0.9,0.9v53.8l23-23l0.9-0.9
      c17.1-23.9,46.9-39.3,78.5-39.3h17.9c57.2,0,101.5,46.1,101.5,104.1V630.8z"/>
  </g>
</g>
<rect x="-293" y="-103" transform="matrix(0.7071 0.7071 -0.7071 0.7071 341.3503 -30.0925)" class="st0" width="1000" height="1000"/>
</svg>
