<svg version="1.1" id="logo" xmlns="http://www.w3.org/2000/svg" xmlns:xlink="http://www.w3.org/1999/xlink" x="0px" y="0px"
	 viewBox="-177 268 257 258" style="enable-background:new -177 268 257 258;" xml:space="preserve">
  <defs>
   <style type="text/css">
    .st0{fill:none;stroke:#fff;stroke-width:3;stroke-linecap:round;stroke-linejoin:round;stroke-miterlimit:10;}
    .st1{fill:none;stroke:#fff;stroke-width:2;stroke-miterlimit:10;}
    .st2{fill:#fff;stroke:#fff;stroke-linejoin:round;stroke-miterlimit:10;}
    .st3{fill:#fff;stroke:#fff;stroke-width:3;stroke-miterlimit:10;}
     .outerShell {
       stroke-dasharray: 1200;
       stroke-dashoffset: 0;
       animation: dash 4s linear forwards;
       animation-delay: 0.5s;
       -webkit-animation: dash 4s linear forwards;
       -webkit-animation-delay: 0.5s;
       -o-animation: dash 4s linear forwards;
       -o-animation-delay: 0.5s;
       -moz-animation: dash 4s linear forwards;
       -moz-animation-delay: 0.5s;
     }

    @keyframes dash {
      from {
         stroke-dashoffset: 1200;
      }
      to {
         stroke-dashoffset: 0;
      }
    }

    @-webkit-keyframes dash {
      from {
         stroke-dashoffset: 1200;
      }
      to {
         stroke-dashoffset: 0;
      }
    }

    @-moz-keyframes dash {
      from {
         stroke-dashoffset: 1200;
      }
      to {
         stroke-dashoffset: 0;
      }
    }

    .dumbell { 
       stroke-dasharray: 1200;
       stroke-dashoffset: 0;
       animation: dashDumbell 7.5s linear forwards;
       animation-delay: 0.5s;
       -webkit-animation: dashDumbell 7.5s linear forwards;
       -webkit-animation-delay: 0.5s;
       -o-animation: dashDumbell 7.5s linear forwards;
       -o-animation-delay: 0.5s;
       -moz-animation: dashDumbell 7.5s linear forwards;
       -moz-animation-delay: 0.5s;
     }

    @keyframes dashDumbell {
      from {
         stroke-dashoffset: 1200;
      }
      to {
         stroke-dashoffset: 0;
      }
    }

    @-webkit-keyframes dashDumbell {
      from {
         stroke-dashoffset: 1200;
      }
      to {
         stroke-dashoffset: 0;
      }
    }

    @-moz-keyframes dashDumbell {
      from {
         stroke-dashoffset: 1200;
      }
      to {
         stroke-dashoffset: 0;
      }
    }

    #logo:hover .st0, #logo:hover .st1 {
      fill: #FDCF98;
      stroke: #FDCF98;
      transition: .8s;
    }

   </style>
 </defs>
	<g>
		<path class="st0" d="M-48.6,278.6L-166.9,397l118.4,118.4L69.9,397L-48.6,278.6z M-154.4,397l105.9-105.9L57.3,397L-48.6,502.9
			L-154.4,397z"/>
	</g>
	<g>
		<path class="st1" d="M17.2,391c-4.1,0-7.6,2.5-9.1,6h-113.3c-1.5-3.5-5.1-6-9.1-6c-5.5,0-10,4.5-10,10s4.5,10,10,10
			c4.1,0,7.6-2.5,9.1-6H8.2c1.5,3.5,5.1,6,9.1,6c5.5,0,10-4.5,10-10S22.7,391,17.2,391z M-114.3,406.5c-3.1,0-5.5-2.5-5.5-5.5
			s2.5-5.5,5.5-5.5c3.1,0,5.5,2.5,5.5,5.5S-111.3,406.5-114.3,406.5z M17.2,406.5c-3.1,0-5.5-2.5-5.5-5.5s2.5-5.5,5.5-5.5
			c3.1,0,5.5,2.5,5.5,5.5S20.3,406.5,17.2,406.5z"/>
	</g>
	<g>
		<path class="st2" d="M-58.6,393.4h12.7l-31.9-31.9l29.1-29.1l35.6,35.6l6.4-6.4l-41.8-42l-41.7,41.7l0.2,0.2l-0.2,0.2L-58.6,393.4
			z M-30.7,408.4h-12.7l24.2,24.2l-29.1,29.1l-35.6-35.6l-6.4,6.4l41.8,42l41.7-41.7l-0.2-0.2l0.2-0.2L-30.7,408.4z"/>
	</g>
</svg>
