<svg version="1.1" id="Capa_1" xmlns="http://www.w3.org/2000/svg" xmlns:xlink="http://www.w3.org/1999/xlink" x="0px" y="0px"
	 viewBox="524.5 -356.5 1500 1500" style="enable-background:new 524.5 -356.5 1500 1500;" xml:space="preserve">
<style type="text/css">
	.st0{fill:#fff;stroke:#fff;stroke-width:2;stroke-miterlimit:10;}
	.st1{fill:none;stroke:#fff;stroke-width:16;stroke-miterlimit:10;}
</style>
<g>
	<path class="st0" d="M1530.5,194c0-0.1,0-0.1,0-0.2c0-0.1,0-0.1,0-0.2c0-0.1,0-0.3,0-0.4c0-0.1,0-0.2,0-0.3l0,0c0-0.1,0-0.1,0-0.2
		c0-0.1,0-0.1,0-0.2c0-0.1,0-0.2-0.1-0.3c0-0.1-0.1-0.3-0.1-0.4l0,0c0-0.1-0.1-0.2-0.1-0.3s-0.1-0.3-0.1-0.4c0-0.1,0-0.1-0.1-0.2
		c0-0.1,0-0.1-0.1-0.2l0,0c0-0.1-0.1-0.2-0.1-0.3c-0.1-0.1-0.1-0.2-0.2-0.4c0-0.1-0.1-0.1-0.1-0.2l-0.1-0.1
		c-0.1-0.2-0.2-0.3-0.3-0.5c0-0.1-0.1-0.1-0.1-0.2l0,0l0,0c-0.1-0.1-0.2-0.3-0.3-0.4c-0.1-0.1-0.1-0.2-0.2-0.2l-0.1-0.1
		c0-0.1-0.1-0.1-0.2-0.2c-0.1-0.1-0.2-0.2-0.3-0.3l0,0l-0.1-0.1c0,0,0,0-0.1-0.1l-0.1-0.1c0,0,0,0-0.1-0.1c-0.1-0.1-0.1-0.1-0.2-0.2
		c-0.1-0.1-0.2-0.1-0.2-0.2c-0.1-0.1-0.3-0.2-0.4-0.3s-0.2-0.1-0.3-0.2c-0.1-0.1-0.2-0.1-0.4-0.2c0,0-0.1,0-0.2-0.1h-0.1
		c-0.1,0-0.1,0-0.2-0.1c-0.1,0-0.2-0.1-0.3-0.1s-0.2-0.1-0.3-0.1c-0.1,0-0.1,0-0.2-0.1c-0.1,0-0.1,0-0.2-0.1c-0.1,0-0.3-0.1-0.4-0.1
		s-0.2,0-0.3-0.1c0,0,0,0-0.1,0s-0.3,0-0.4,0s-0.2,0-0.4,0c-0.1,0-0.1,0-0.2,0s-0.1,0-0.2,0l0,0c-0.1,0-0.3,0-0.4,0s-0.2,0-0.3,0
		s-0.1,0-0.2,0s-0.2,0-0.2,0c-0.1,0-0.2,0-0.3,0.1c-0.1,0-0.3,0-0.4,0.1l0,0c-0.1,0-0.2,0.1-0.3,0.1c-0.1,0-0.3,0.1-0.4,0.1
		c-0.1,0-0.1,0-0.2,0.1c0,0,0,0-0.1,0l-496,192c-3.2,1.3-5.2,4.3-5.2,7.6s2,6.3,5.1,7.5l147.9,56.8l47.4,146.1c0,0,0,0,0,0.1v0.1
		c0.1,0.3,0.3,0.6,0.4,0.9c0,0.1,0.1,0.1,0.1,0.2c0.1,0.3,0.3,0.6,0.5,0.8c0,0,0,0.1,0.1,0.1c0,0,0,0,0,0.1c0,0,0,0,0,0.1
		c0.1,0.1,0.1,0.2,0.2,0.2c0.1,0.1,0.1,0.2,0.2,0.3s0.1,0.1,0.2,0.2l0.1,0.1l0.1,0.1l0.1,0.1l0.1,0.1c0.2,0.1,0.3,0.3,0.5,0.4l0,0
		l0,0c0.1,0,0.1,0.1,0.2,0.1c0.3,0.2,0.5,0.3,0.8,0.5l0.1,0.1l0,0c0.3,0.1,0.5,0.3,0.8,0.4c0.1,0,0.1,0,0.2,0.1
		c0.1,0,0.2,0.1,0.2,0.1c0.3,0.1,0.7,0.2,1,0.2l0,0h0.1c0.4,0.1,0.8,0.1,1.1,0.1l0,0l0,0l0,0h0.1c0.3,0,0.7,0,1-0.1h0.1
		c0.1,0,0.1,0,0.2,0c0.3,0,0.5-0.1,0.8-0.2c0.1,0,0.2,0,0.2-0.1l0,0h0.1c0.1,0,0.2-0.1,0.4-0.1c0.2-0.1,0.3-0.1,0.5-0.2
		c0,0,0,0,0.1,0l0,0c0.1,0,0.1-0.1,0.2-0.1c0.2-0.1,0.3-0.2,0.5-0.3c0.1-0.1,0.2-0.1,0.3-0.2l0,0c0,0,0.1,0,0.1-0.1
		c0.1-0.1,0.3-0.2,0.4-0.3s0.1-0.1,0.2-0.2s0.2-0.1,0.2-0.2c0.1-0.1,0.1-0.1,0.2-0.2c0.2-0.2,0.5-0.5,0.7-0.8c0,0,0,0,0.1-0.1
		c0,0,0-0.1,0.1-0.1c0,0,0,0,0.1-0.1l58.5-79c2.6-3.6,1.9-8.6-1.7-11.2c-3.6-2.6-8.6-1.9-11.2,1.7l-25.4,34.3l20.2-55.1l191.4,72.8
		c0.9,0.3,1.9,0.5,2.8,0.5c1.4,0,2.8-0.4,4-1.1c2.1-1.2,3.5-3.3,3.9-5.7l55.3-360.5c0,0,0,0,0-0.1s0-0.3,0-0.4
		C1530.5,194.2,1530.5,194.1,1530.5,194z M1468.1,223.3l-228.5,166c-3.6,2.6-4.4,7.6-1.8,11.2c1.6,2.2,4,3.3,6.5,3.3
		c1.6,0,3.3-0.5,4.7-1.5l218.2-158.7L1262.9,473c-0.8,0.8-1.4,1.7-1.9,2.8c-0.1,0.2-0.1,0.4-0.2,0.6l-33.9,92.7l-41.4-127.7
		c-0.8-2.4-2.6-4.2-4.7-5l0,0l-132.1-50.8L1468.1,223.3z M1460.8,543.1l-178.5-67.8l228.2-256.2L1460.8,543.1z"/>
	<path class="st0" d="M1204,432.9c1.6,0,3.3-0.5,4.7-1.5l15.6-11.3c3.6-2.6,4.4-7.6,1.8-11.2c-2.6-3.6-7.6-4.4-11.2-1.8l-15.6,11.3
		c-3.6,2.6-4.4,7.6-1.8,11.2C1199.1,431.8,1201.5,432.9,1204,432.9z"/>
</g>
<rect x="774.5" y="-106.5" transform="matrix(0.7071 0.7071 -0.7071 0.7071 651.5267 -785.9299)" class="st1" width="1000" height="1000"/>
</svg>
